<svg width="217" height="56" viewBox="0 0 217 56" fill="none" xmlns="http://www.w3.org/2000/svg">
<rect width="217" height="56" fill="white"/>
<path d="M2.78263 14.0332H8.69037V44H2.78263V14.0332ZM43.9903 14.0332V44H38.1254V24.5644L29.6919 38.4775H29.0069L20.5734 24.6072V44H14.6657V14.0332H20.7447L29.3494 28.2032L37.9114 14.0332H43.9903ZM61.1754 14.0332C64.0579 14.0332 66.4838 15.0035 68.4531 16.9443C70.4223 18.885 71.4069 21.268 71.4069 24.0935C71.4069 26.9189 70.4223 29.302 68.4531 31.2427C66.4838 33.1834 64.0579 34.1538 61.1754 34.1538H55.9098V44H50.0021V14.0332H61.1754ZM61.1754 28.6313C62.4312 28.6313 63.4729 28.2032 64.3005 27.347C65.1282 26.4623 65.542 25.3778 65.542 24.0935C65.542 22.7806 65.1282 21.6961 64.3005 20.8399C63.4729 19.9837 62.4312 19.5556 61.1754 19.5556H55.9098V28.6313H61.1754ZM92.1202 44L86.084 33.5972H81.589V44H75.6812V14.0332H87.668C90.4363 14.0332 92.7908 15.0035 94.7316 16.9443C96.6723 18.885 97.6426 21.2252 97.6426 23.9651C97.6426 25.8201 97.1146 27.5468 96.0587 29.145C95.0027 30.7147 93.6042 31.8991 91.8633 32.6982L98.4988 44H92.1202ZM81.589 19.5556V28.4173H87.668C88.781 28.4173 89.7371 27.9892 90.5362 27.133C91.3353 26.2482 91.7349 25.1923 91.7349 23.9651C91.7349 22.7378 91.3353 21.6961 90.5362 20.8399C89.7371 19.9837 88.781 19.5556 87.668 19.5556H81.589ZM176.595 44L166.534 14.0332H172.956L180.276 37.0648L187.554 14.0332H194.018L183.915 44H176.595ZM203.242 38.3491H215.871V44H197.334V14.0332H215.657V19.6841H203.242V26.0627H214.587V31.628H203.242V38.3491Z" fill="#2950ED"/>
<path fill-rule="evenodd" clip-rule="evenodd" d="M144.629 46.2478C149.396 46.2478 153.442 44.6012 156.767 41.3082C160.091 37.9838 161.753 33.9223 161.753 29.1239C161.753 24.3254 160.091 20.2797 156.767 16.9866C153.442 13.6622 149.396 12 144.629 12C139.862 12 135.816 13.6622 132.492 16.9866C132.433 17.0458 132.374 17.1053 132.316 17.165C132.282 17.131 132.248 17.0971 132.214 17.0633C128.89 13.7389 124.844 12.0767 120.077 12.0767C115.31 12.0767 111.264 13.7389 107.94 17.0633C104.647 20.3563 103 24.4021 103 29.2005C103 33.999 104.647 38.0604 107.94 41.3848C111.264 44.6779 115.31 46.3244 120.077 46.3244C124.844 46.3244 128.89 44.6779 132.214 41.3848C132.274 41.3253 132.333 41.2656 132.391 41.2055C132.425 41.2398 132.458 41.274 132.492 41.3082C135.816 44.6012 139.862 46.2478 144.629 46.2478ZM128.714 22.675C127.94 24.6477 127.552 26.7973 127.552 29.1239C127.552 31.4866 127.952 33.6707 128.75 35.676C128.424 36.1268 128.058 36.5557 127.651 36.9627C125.612 38.9699 123.088 39.9735 120.077 39.9735C117.066 39.9735 114.541 38.9699 112.503 36.9627C110.464 34.9242 109.445 32.3368 109.445 29.2005C109.445 26.0643 110.464 23.4769 112.503 21.4383C114.541 19.3998 117.066 18.3805 120.077 18.3805C123.088 18.3805 125.612 19.3998 127.651 21.4383C128.043 21.8303 128.397 22.2425 128.714 22.675ZM136.019 35.6851C136.329 36.1046 136.674 36.5049 137.055 36.8861C139.094 38.8933 141.618 39.8969 144.629 39.8969C147.64 39.8969 150.165 38.8933 152.203 36.8861C154.242 34.8475 155.261 32.2601 155.261 29.1239C155.261 25.9876 154.242 23.4002 152.203 21.3617C150.165 19.3231 147.64 18.3038 144.629 18.3038C141.618 18.3038 139.094 19.3231 137.055 21.3617C136.656 21.7604 136.297 22.1802 135.976 22.621C136.792 24.6293 137.201 26.8225 137.201 29.2005C137.201 31.5368 136.807 33.6983 136.019 35.6851Z" fill="#FFE663"/>
</svg>
