<svg width="27" height="23" viewBox="0 0 27 23" fill="none" xmlns="http://www.w3.org/2000/svg">
<path d="M14.5 8.5V7.5H13.5V6.5C13.4992 6.23503 13.3936 5.98113 13.2062 5.79377C13.0189 5.6064 12.765 5.50079 12.5 5.5H11.5V4.5H10.5V5.5H9.5V4.5H8.5V5.5H7.5C7.23503 5.50079 6.98113 5.6064 6.79377 5.79377C6.6064 5.98113 6.50079 6.23503 6.5 6.5V7.5H5.5V8.5H6.5V9.5H5.5V10.5H6.5V11.5C6.50079 11.765 6.6064 12.0189 6.79377 12.2062C6.98113 12.3936 7.23503 12.4992 7.5 12.5H8.5V13.5H9.5V12.5H10.5V13.5H11.5V12.5H12.5C12.765 12.4992 13.0189 12.3936 13.2062 12.2062C13.3936 12.0189 13.4992 11.765 13.5 11.5V10.5H14.5V9.5H13.5V8.5H14.5ZM12.5 11.5H7.5V6.5H12.5V11.5Z" fill="white"/>
<path d="M9.68043 7H9.00793L8.00293 11H8.51643L8.74843 10.0625H9.90643L10.1324 11H10.6634L9.68043 7ZM8.81593 9.662L9.32493 7.475H9.34793L9.83943 9.662H8.81593ZM11.1219 7H11.6219V11H11.1219V7Z" fill="white"/>
<path d="M16.6747 15.4289C18.6673 15.4289 20.3493 15.7456 20.3493 16.9702C20.3493 18.1938 18.6566 18.5 16.6747 18.5L16.5393 18.4995C14.6064 18.4851 13 18.1555 13 16.9587C13 15.735 14.6928 15.4289 16.6747 15.4289ZM19.7849 14.6916C20.5427 14.6772 21.3577 14.7793 21.6586 14.8511C22.2966 14.9733 22.7159 15.222 22.8896 15.5847C23.0368 15.8817 23.0368 16.2267 22.8896 16.5237C22.6239 17.0853 21.7668 17.2659 21.4336 17.3124C21.3646 17.3219 21.3093 17.2645 21.3167 17.1964C21.4869 15.6403 20.1332 14.9024 19.7829 14.7328C19.7682 14.7247 19.7648 14.7132 19.7663 14.7055C19.7672 14.7007 19.7736 14.693 19.7849 14.6916ZM16.6747 9.5C18.0245 9.5 19.1062 10.5593 19.1062 11.8812C19.1062 13.2031 18.0245 14.2624 16.6747 14.2624C15.3253 14.2624 14.2432 13.2031 14.2432 11.8812C14.2432 10.5593 15.3253 9.5 16.6747 9.5ZM19.9169 9.89771C21.2208 9.89771 22.2442 11.0984 21.8954 12.4356C21.6601 13.3368 20.8083 13.9352 19.8592 13.9108C19.7638 13.9089 19.6704 13.8998 19.5794 13.8849C19.5138 13.8734 19.4805 13.8011 19.5182 13.7474C19.8803 13.2257 20.0867 12.5975 20.0867 11.9244C20.0867 11.221 19.8617 10.5661 19.4698 10.028C19.4571 10.0113 19.4478 9.98587 19.4605 9.96623C19.4703 9.9509 19.4898 9.94227 19.5079 9.93844C19.64 9.91209 19.7756 9.89771 19.9169 9.89771Z" fill="white"/>
</svg>
