<svg width="27" height="23" viewBox="0 0 27 23" fill="none" xmlns="http://www.w3.org/2000/svg">
<path d="M14 7.33333V6H12.6667V4.66667C12.6656 4.31337 12.5248 3.97484 12.275 3.72502C12.0252 3.4752 11.6866 3.33439 11.3333 3.33333H10V2H8.66667V3.33333H7.33333V2H6V3.33333H4.66667C4.31337 3.33439 3.97484 3.4752 3.72502 3.72502C3.4752 3.97484 3.33439 4.31337 3.33333 4.66667V6H2V7.33333H3.33333V8.66667H2V10H3.33333V11.3333C3.33439 11.6866 3.4752 12.0252 3.72502 12.275C3.97484 12.5248 4.31337 12.6656 4.66667 12.6667H6V14H7.33333V12.6667H8.66667V14H10V12.6667H11.3333C11.6866 12.6656 12.0252 12.5248 12.275 12.275C12.5248 12.0252 12.6656 11.6866 12.6667 11.3333V10H14V8.66667H12.6667V7.33333H14ZM11.3333 11.3333H4.66667V4.66667H11.3333V11.3333Z" fill="#BEBEBE"/>
<path d="M7.57407 5.33334H6.6774L5.3374 10.6667H6.02207L6.3314 9.41668H7.8754L8.17674 10.6667H8.88474L7.57407 5.33334ZM6.4214 8.88268L7.10007 5.96668H7.13074L7.78607 8.88268H6.4214ZM9.49607 5.33334H10.1627V10.6667H9.49607V5.33334Z" fill="#BEBEBE"/>
<path d="M17.2328 16.9052C19.8897 16.9052 22.1324 17.3274 22.1324 18.9602C22.1324 20.5918 19.8753 21 17.2328 21L17.0523 20.9993C14.4751 20.9802 12.3333 20.5406 12.3333 18.9449C12.3333 17.3134 14.5903 16.9052 17.2328 16.9052ZM21.3797 15.9221C22.3902 15.903 23.4769 16.039 23.8781 16.1349C24.7287 16.2978 25.2878 16.6293 25.5193 17.1129C25.7157 17.509 25.7157 17.9689 25.5193 18.365C25.1651 19.1137 24.0223 19.3545 23.578 19.4165C23.4861 19.4293 23.4123 19.3526 23.4221 19.2619C23.6491 17.187 21.8442 16.2032 21.3771 15.9771C21.3575 15.9662 21.353 15.9509 21.3549 15.9407C21.3562 15.9343 21.3647 15.9241 21.3797 15.9221ZM17.2328 9C19.0326 9 20.4748 10.4124 20.4748 12.1749C20.4748 13.9374 19.0326 15.3499 17.2328 15.3499C15.4337 15.3499 13.9908 13.9374 13.9908 12.1749C13.9908 10.4124 15.4337 9 17.2328 9ZM21.5558 9.53029C23.2943 9.53029 24.6589 11.1312 24.1938 12.9141C23.8801 14.1157 22.7444 14.9136 21.4789 14.8811C21.3517 14.8785 21.2271 14.8664 21.1057 14.8466C21.0183 14.8312 20.974 14.7348 21.0242 14.6632C21.5069 13.9675 21.7822 13.13 21.7822 12.2325C21.7822 11.2947 21.4821 10.4214 20.9596 9.70404C20.9427 9.68169 20.9303 9.64783 20.9472 9.62164C20.9603 9.60119 20.9864 9.5897 21.0105 9.58459C21.1866 9.54945 21.3673 9.53029 21.5558 9.53029Z" fill="#BEBEBE"/>
</svg>
