<svg width="14" height="14" viewBox="0 0 14 14" fill="none" xmlns="http://www.w3.org/2000/svg">
<path d="M4.87433 2.91667H4.08917L2.91667 7.58333H3.51633L3.787 6.48958H5.138L5.40167 7.58333H6.02117L4.87433 2.91667ZM3.86575 6.02117L4.459 3.47083H4.48525L5.05925 6.02175L3.86575 6.02117ZM6.5555 7.58333V2.91667H7.13883V7.58333H6.5555ZM6.66458 8.16667H2.33333V2.33333H8.16667V5.12167C8.857 4.6756 9.69221 4.51148 10.5 4.66317V3.5H9.33333V2.33333C9.33241 2.0242 9.2092 1.72799 8.9906 1.5094C8.77201 1.2908 8.4758 1.16759 8.16667 1.16667H7V0H5.83333V1.16667H4.66667V0H3.5V1.16667H2.33333C2.0242 1.16759 1.72799 1.2908 1.5094 1.5094C1.2908 1.72799 1.16759 2.0242 1.16667 2.33333V3.5H0V4.66667H1.16667V5.83333H0V7H1.16667V8.16667C1.16759 8.4758 1.2908 8.77201 1.5094 8.9906C1.72799 9.2092 2.0242 9.33241 2.33333 9.33333H3.5V10.5H4.66667V9.33333H5.83333V10.5H7V9.338C6.81572 8.97204 6.70194 8.57469 6.66458 8.16667ZM7.875 7.875C7.875 7.4712 7.99474 7.07646 8.21908 6.74071C8.44342 6.40496 8.76229 6.14327 9.13535 5.98875C9.50842 5.83422 9.91893 5.79378 10.315 5.87256C10.711 5.95134 11.0748 6.14579 11.3603 6.43132C11.6459 6.71686 11.8403 7.08065 11.9191 7.47669C11.9979 7.87273 11.9574 8.28325 11.8029 8.65631C11.6484 9.02938 11.3867 9.34824 11.051 9.57258C10.7152 9.79692 10.3205 9.91667 9.91667 9.91667C9.37518 9.91667 8.85588 9.70156 8.47299 9.31868C8.0901 8.93579 7.875 8.41648 7.875 7.875ZM9.91667 11.0833C8.554 11.0833 5.83333 11.7676 5.83333 13.125V14H14V13.125C14 11.767 11.2793 11.0833 9.91667 11.0833Z" fill="#2950ED"/>
</svg>
