<svg width="16" height="16" viewBox="0 0 16 16" fill="none" xmlns="http://www.w3.org/2000/svg">
<path d="M5.1998 9.99998C5.09372 9.99998 4.99198 9.95784 4.91696 9.88282C4.84195 9.80781 4.7998 9.70607 4.7998 9.59998C4.7998 9.4939 4.84195 9.39215 4.91696 9.31714C4.99198 9.24212 5.09372 9.19998 5.1998 9.19998H10.7998C10.9059 9.19998 11.0076 9.24212 11.0826 9.31714C11.1577 9.39215 11.1998 9.4939 11.1998 9.59998C11.1998 9.70607 11.1577 9.80781 11.0826 9.88282C11.0076 9.95784 10.9059 9.99998 10.7998 9.99998H5.1998ZM5.1998 12C5.09372 12 4.99198 11.9578 4.91696 11.8828C4.84195 11.8078 4.7998 11.7061 4.7998 11.6C4.7998 11.4939 4.84195 11.3922 4.91696 11.3171C4.99198 11.2421 5.09372 11.2 5.1998 11.2H10.7998C10.9059 11.2 11.0076 11.2421 11.0826 11.3171C11.1577 11.3922 11.1998 11.4939 11.1998 11.6C11.1998 11.7061 11.1577 11.8078 11.0826 11.8828C11.0076 11.9578 10.9059 12 10.7998 12H5.1998Z" fill="white"/>
<path fill-rule="evenodd" clip-rule="evenodd" d="M8.9479 0.799988H3.5999C3.28164 0.799988 2.97642 0.926416 2.75137 1.15146C2.52633 1.3765 2.3999 1.68173 2.3999 1.99999V14C2.3999 14.3182 2.52633 14.6235 2.75137 14.8485C2.97642 15.0736 3.28164 15.2 3.5999 15.2H12.3999C12.7182 15.2 13.0234 15.0736 13.2484 14.8485C13.4735 14.6235 13.5999 14.3182 13.5999 14V5.76159C13.5998 5.46116 13.4871 5.1717 13.2839 4.95039L9.8327 1.18879C9.72023 1.06618 9.58349 0.968308 9.43117 0.901375C9.27885 0.834443 9.11428 0.799916 8.9479 0.799988ZM3.1999 1.99999C3.1999 1.8939 3.24205 1.79216 3.31706 1.71715C3.39207 1.64213 3.49382 1.59999 3.5999 1.59999H8.9479C9.00341 1.59993 9.05832 1.61142 9.10914 1.63373C9.15996 1.65604 9.20558 1.68869 9.2431 1.72959L12.6943 5.49119C12.7621 5.56492 12.7998 5.66141 12.7999 5.76159V14C12.7999 14.1061 12.7578 14.2078 12.6827 14.2828C12.6077 14.3578 12.506 14.4 12.3999 14.4H3.5999C3.49382 14.4 3.39207 14.3578 3.31706 14.2828C3.24205 14.2078 3.1999 14.1061 3.1999 14V1.99999Z" fill="white"/>
<path d="M9.19995 1.67999V5.43999H12.96" stroke="white" stroke-linecap="round" stroke-linejoin="round"/>
<path d="M6.50716 4.90638C6.6214 4.90988 6.73518 4.8904 6.84175 4.8491C6.94833 4.8078 7.04552 4.74551 7.12756 4.66594C7.20961 4.58637 7.27484 4.49113 7.31939 4.38587C7.36393 4.28061 7.38689 4.16748 7.38689 4.05319C7.38689 3.93889 7.36393 3.82576 7.31939 3.7205C7.27484 3.61524 7.20961 3.52 7.12756 3.44043C7.04552 3.36086 6.94833 3.29857 6.84175 3.25727C6.73518 3.21597 6.6214 3.19649 6.50716 3.19998C6.2854 3.20678 6.07499 3.29964 5.92053 3.45891C5.76607 3.61817 5.67969 3.83132 5.67969 4.05319C5.67969 4.27505 5.76607 4.4882 5.92053 4.64746C6.07499 4.80673 6.2854 4.89959 6.50716 4.90638Z" fill="white"/>
<path fill-rule="evenodd" clip-rule="evenodd" d="M8.2126 6.75519C8.2126 5.84799 7.44861 5.19119 6.5062 5.19119C5.56381 5.19119 4.7998 5.84719 4.7998 6.75519V7.18239C4.80002 7.25779 4.83012 7.33002 4.8835 7.38326C4.93689 7.4365 5.00921 7.46639 5.0846 7.46639H7.9286C8.00386 7.46618 8.07598 7.43619 8.12919 7.38298C8.1824 7.32976 8.21239 7.25765 8.2126 7.18239V6.75519Z" fill="white"/>
</svg>
