<svg width="18" height="18" viewBox="0 0 18 18" fill="none" xmlns="http://www.w3.org/2000/svg">
<g clip-path="url(#clip0_82_8536)">
<path d="M15 4.61025C14.8395 4.57281 14.6766 4.546 14.5125 4.53C14.2869 3.38717 13.7117 2.34271 12.8664 1.54112C12.0212 0.739544 10.9477 0.220474 9.79455 0.0557336C8.64137 -0.109006 7.46549 0.0887285 6.42962 0.621579C5.39375 1.15443 4.54909 1.99605 4.01251 3.03C3.66672 3.07179 3.32694 3.15359 3.00001 3.27375C2.12325 3.5815 1.36371 4.15398 0.826376 4.91206C0.289038 5.67015 0.000427246 6.57642 0.000427246 7.50562C0.000427246 8.43483 0.289038 9.3411 0.826376 10.0992C1.36371 10.8573 2.12325 11.4297 3.00001 11.7375V10.0845C2.54415 9.82351 2.16533 9.44673 1.90186 8.9923C1.63839 8.53787 1.49964 8.02191 1.49964 7.49662C1.49964 6.97134 1.63839 6.45538 1.90186 6.00095C2.16533 5.54652 2.54415 5.16974 3.00001 4.90875C3.35816 4.69839 3.75701 4.56672 4.17001 4.5225L4.97251 4.44L5.34751 3.7275C5.73936 2.96838 6.35775 2.35002 7.1169 1.95821C7.87604 1.5664 8.7383 1.42055 9.58407 1.54091C10.4298 1.66126 11.2172 2.04185 11.8369 2.62987C12.4566 3.21789 12.878 3.9842 13.0425 4.8225L13.2675 5.9475L14.415 6.03C14.6149 6.04649 14.8116 6.08962 15 6.15825C15.4377 6.30874 15.8175 6.59214 16.0863 6.96888C16.3552 7.34562 16.4997 7.79691 16.4997 8.25975C16.4997 8.72259 16.3552 9.17388 16.0863 9.55062C15.8175 9.92736 15.4377 10.2108 15 10.3612V11.9243C15.8458 11.7556 16.6069 11.299 17.1539 10.6322C17.7008 9.96543 17.9998 9.12967 17.9998 8.26725C17.9998 7.40483 17.7008 6.56908 17.1539 5.90229C16.6069 5.2355 15.8458 4.7789 15 4.61025Z" fill="#2950ED"/>
<path d="M9 8.25C6.1365 8.25 4.5 8.8185 4.5 9.87525V16.3748C4.5 17.4315 6.81525 18 9 18C11.1848 18 13.5 17.4315 13.5 16.3748V9.87525C13.5 8.8185 11.8635 8.25 9 8.25ZM9 9C11.0332 9 12.6825 9.6075 12.6825 10.281C12.6825 10.9545 11.0325 11.4998 9 11.4998C6.9675 11.4998 5.3175 10.9545 5.3175 10.281C5.3175 9.6075 6.9675 9 9 9ZM5.3175 14.943V14.0858C6.48489 14.5628 7.7395 14.7892 9 14.7502C10.2605 14.7892 11.5151 14.5628 12.6825 14.0858V14.97C11.5066 15.4102 10.2547 15.6116 9 15.5625C7.74378 15.599 6.49262 15.3885 5.3175 14.943Z" fill="#2950ED"/>
</g>
<defs>
<clipPath id="clip0_82_8536">
<rect width="18" height="18" fill="white"/>
</clipPath>
</defs>
</svg>
