<svg width="14" height="14" viewBox="0 0 14 14" fill="none" xmlns="http://www.w3.org/2000/svg">
<path d="M8.66667 1.70625C9.56413 1.70625 10.2917 0.942333 10.2917 0H11.0417C11.0417 0.942333 11.7692 1.70625 12.6667 1.70625V2.49375C11.7692 2.49375 11.0417 3.25767 11.0417 4.2H10.2917C10.2917 3.25767 9.56413 2.49375 8.66667 2.49375V1.70625ZM0 6.3C2.20914 6.3 4 4.4196 4 2.1H5.33333C5.33333 4.4196 7.1242 6.3 9.33333 6.3V7.7C7.1242 7.7 5.33333 9.58041 5.33333 11.9H4C4 9.58041 2.20914 7.7 0 7.7V6.3ZM10.8333 8.4C10.8333 9.65643 9.86327 10.675 8.66667 10.675V11.725C9.86327 11.725 10.8333 12.7436 10.8333 14H11.8333C11.8333 12.7436 12.8034 11.725 14 11.725V10.675C12.8034 10.675 11.8333 9.65643 11.8333 8.4H10.8333Z" fill="#FFC83A"/>
</svg>
