<svg width="23" height="29" viewBox="0 0 23 29" fill="none" xmlns="http://www.w3.org/2000/svg">
<path d="M11.5001 2.63636C9.36992 2.63636 7.64314 4.40688 7.64314 6.59091V11.8636C7.64314 14.0477 9.36992 15.8182 11.5001 15.8182C13.6301 15.8182 15.357 14.0477 15.357 11.8636V6.59091C15.357 4.40688 13.6301 2.63636 11.5001 2.63636ZM11.5001 0C15.0502 0 17.9282 2.95086 17.9282 6.59091V11.8636C17.9282 15.5037 15.0502 18.4545 11.5001 18.4545C7.94985 18.4545 5.07189 15.5037 5.07189 11.8636V6.59091C5.07189 2.95086 7.94985 0 11.5001 0ZM0 13.1818H2.59177C3.2156 17.6535 6.9663 21.0909 11.5001 21.0909C16.0337 21.0909 19.7844 17.6535 20.4083 13.1818H23C22.4072 18.6807 18.1488 23.047 12.7857 23.6549V29H10.2144V23.6549C4.85125 23.047 0.592867 18.6807 0 13.1818Z" fill="#FEFEFE"/>
</svg>
