<svg width="12" height="14" viewBox="0 0 12 14" fill="none" xmlns="http://www.w3.org/2000/svg">
<path d="M2.63817 10.177C1.14306 9.16307 0.166748 7.49098 0.166748 5.6C0.166748 2.5072 2.77842 0 6.00008 0C9.22176 0 11.8334 2.5072 11.8334 5.6C11.8334 7.49098 10.8571 9.16307 9.36198 10.177L10.8808 13.5097C10.9615 13.6868 10.8774 13.8932 10.6929 13.9707C10.6468 13.99 10.5971 14 10.5468 14H1.45337C1.25202 14 1.08879 13.8433 1.08879 13.65C1.08879 13.6017 1.09919 13.554 1.11935 13.5097L2.63817 10.177ZM3.16983 6.27928C3.48604 7.49742 4.63326 8.4 6.00008 8.4C7.3669 8.4 8.5141 7.49742 8.83034 6.27928L7.41517 5.93964C7.25709 6.54871 6.68346 7 6.00008 7C5.31671 7 4.74307 6.54871 4.58499 5.93964L3.16983 6.27928Z" fill="#2950ED"/>
</svg>
