<svg width="16" height="16" viewBox="0 0 16 16" fill="none" xmlns="http://www.w3.org/2000/svg">
<g clip-path="url(#clip0_23_4134)">
<path fill-rule="evenodd" clip-rule="evenodd" d="M9.5 14.5L3.5 12V3.99999L9.5 1.49999V14.5ZM2.615 13.256C2.43285 13.18 2.27725 13.0518 2.16781 12.8876C2.05837 12.7233 1.99998 12.5304 2 12.333V3.66699C1.99998 3.46962 2.05837 3.27666 2.16781 3.11241C2.27725 2.94817 2.43285 2.81998 2.615 2.74399L8.923 0.11499C9.15098 0.0199832 9.39889 -0.0172586 9.64472 0.00657121C9.89056 0.030401 10.1267 0.114565 10.3322 0.25159C10.5377 0.388615 10.7062 0.574261 10.8226 0.792043C10.9391 1.00983 11.0001 1.25301 11 1.49999V1.99999H12.25C13.216 1.99999 14 2.78299 14 3.74999V12.25C14 12.7141 13.8156 13.1592 13.4874 13.4874C13.1592 13.8156 12.7141 14 12.25 14H11V14.5C11.0001 14.747 10.9391 14.9902 10.8226 15.2079C10.7062 15.4257 10.5377 15.6114 10.3322 15.7484C10.1267 15.8854 9.89056 15.9696 9.64472 15.9934C9.39889 16.0172 9.15098 15.98 8.923 15.885L2.615 13.256ZM11 12.5H12.25C12.3163 12.5 12.3799 12.4737 12.4268 12.4268C12.4737 12.3799 12.5 12.3163 12.5 12.25V3.74999C12.5 3.68369 12.4737 3.6201 12.4268 3.57321C12.3799 3.52633 12.3163 3.49999 12.25 3.49999H11V12.5Z" fill="#BEBEBE"/>
</g>
<defs>
<clipPath id="clip0_23_4134">
<rect width="16" height="16" fill="white"/>
</clipPath>
</defs>
</svg>
