<svg width="16" height="17" viewBox="0 0 16 17" fill="none" xmlns="http://www.w3.org/2000/svg">
<path d="M7.33331 1.83334C10.6453 1.83334 13.3333 4.52134 13.3333 7.83334C13.3333 11.1453 10.6453 13.8333 7.33331 13.8333C4.02131 13.8333 1.33331 11.1453 1.33331 7.83334C1.33331 4.52134 4.02131 1.83334 7.33331 1.83334ZM7.33331 12.5C9.91165 12.5 12 10.4117 12 7.83334C12 5.25501 9.91165 3.16668 7.33331 3.16668C4.75498 3.16668 2.66665 5.25501 2.66665 7.83334C2.66665 10.4117 4.75498 12.5 7.33331 12.5ZM12.9902 12.5474L14.8758 14.433L13.933 15.3758L12.0474 13.4902L12.9902 12.5474Z" fill="#212121"/>
</svg>
