<svg width="14" height="14" viewBox="0 0 14 14" fill="none" xmlns="http://www.w3.org/2000/svg">
<path d="M5.08946 2.21053C5.76437 2.21053 6.41163 2.52105 6.88886 3.07379C7.36609 3.62653 7.63419 4.3762 7.63419 5.15789C7.63419 5.93959 7.36609 6.68926 6.88886 7.242C6.41163 7.79474 5.76437 8.10526 5.08946 8.10526C4.41456 8.10526 3.76729 7.79474 3.29006 7.242C2.81283 6.68926 2.54473 5.93959 2.54473 5.15789C2.54473 4.3762 2.81283 3.62653 3.29006 3.07379C3.76729 2.52105 4.41456 2.21053 5.08946 2.21053ZM5.08946 9.57895C6.78807 9.57895 10.1789 10.5663 10.1789 12.5263V14H0V12.5263C0 10.5663 3.39085 9.57895 5.08946 9.57895ZM10.0262 2.47579C11.3113 4.09684 11.3113 6.34421 10.0262 7.83263L8.95745 6.58737C9.49184 5.71789 9.49184 4.59053 8.95745 3.72105L10.0262 2.47579ZM12.132 0C14.6322 2.98421 14.6131 7.44947 12.132 10.3158L11.095 9.11474C12.8573 6.77158 12.8573 3.42632 11.095 1.20105L12.132 0Z" fill="#2950ED"/>
</svg>
