<svg width="10" height="11" viewBox="0 0 10 11" fill="none" xmlns="http://www.w3.org/2000/svg">
<path d="M0.835388 6.29175V8.58342C0.835388 8.81354 1.02194 9.00008 1.25205 9.00008H8.75206C8.98219 9.00008 9.16873 8.81354 9.16873 8.58342V6.29175C8.59344 6.29175 8.12706 5.82537 8.12706 5.25008C8.12706 4.67479 8.59344 4.20841 9.16873 4.20841V1.91675C9.16873 1.68662 8.98219 1.50008 8.75206 1.50008H1.25205C1.02194 1.50008 0.835388 1.68662 0.835388 1.91675V4.20841C1.41068 4.20841 1.87705 4.67479 1.87705 5.25008C1.87705 5.82537 1.41068 6.29175 0.835388 6.29175ZM1.66872 6.93018C2.2861 6.62337 2.71039 5.98629 2.71039 5.25008C2.71039 4.51391 2.2861 3.87679 1.66872 3.57V2.33341H8.3354V3.57C7.71802 3.87679 7.29373 4.51391 7.29373 5.25008C7.29373 5.98629 7.71802 6.62337 8.3354 6.93018V8.16675H1.66872V6.93018ZM3.75205 6.50008H6.25206V5.66675H3.75205V6.50008ZM3.75205 4.83341H6.25206V4.00008H3.75205V4.83341Z" fill="#F77F11"/>
</svg>
