<svg width="16" height="17" viewBox="0 0 16 17" fill="none" xmlns="http://www.w3.org/2000/svg">
<path d="M2.19733 14.5931L6.44 10.0853M11.7827 8.08067L10.5127 12.1295C10.4923 12.1943 10.4576 12.2529 10.4114 12.3003C10.3652 12.3478 10.3089 12.3827 10.2473 12.4022L2.462 14.8615C2.39186 14.8837 2.31735 14.8849 2.24658 14.8652C2.17581 14.8455 2.11149 14.8055 2.06062 14.7496C2.00975 14.6937 1.97428 14.6241 1.95806 14.5483C1.94185 14.4725 1.94552 14.3934 1.96867 14.3197L4.49667 6.26308C4.51479 6.20524 4.5444 6.15221 4.58351 6.1076C4.62263 6.06299 4.67031 6.02784 4.72333 6.00454L8.31467 4.43346C8.38768 4.40142 8.46799 4.39307 8.54546 4.40946C8.62293 4.42584 8.6941 4.46624 8.75 4.52554L11.686 7.64575C11.7385 7.70156 11.7754 7.7718 11.7925 7.84862C11.8096 7.92544 11.8062 8.00579 11.7827 8.08067Z" stroke="#2950ED" stroke-linecap="round" stroke-linejoin="round"/>
<path d="M12.2687 2.25392L13.8447 3.92842C13.9631 4.0488 14.0577 4.19312 14.1229 4.35288C14.1882 4.51264 14.2227 4.68464 14.2245 4.85878C14.2263 5.03291 14.1954 5.20568 14.1335 5.36694C14.0716 5.5282 13.98 5.67469 13.8641 5.79784C13.7482 5.92098 13.6104 6.01828 13.4586 6.08403C13.3068 6.14979 13.1442 6.18266 12.9803 6.18074C12.8164 6.17881 12.6545 6.14212 12.5042 6.07282C12.3538 6.00352 12.218 5.903 12.1047 5.77717L10.528 4.10267C10.3056 3.8557 10.1831 3.52604 10.1867 3.18428C10.1902 2.84251 10.3196 2.51581 10.547 2.27413C10.7745 2.03245 11.082 1.89501 11.4036 1.89123C11.7253 1.88745 12.0362 2.01764 12.2687 2.25392Z" fill="#2950ED" stroke="#2950ED" stroke-width="0.5" stroke-linecap="round" stroke-linejoin="round"/>
<path d="M7.85399 8.58217C7.76175 8.48069 7.6514 8.39974 7.5294 8.34406C7.40739 8.28837 7.27617 8.25906 7.14339 8.25784C7.01061 8.25661 6.87894 8.28349 6.75604 8.33692C6.63314 8.39034 6.52149 8.46924 6.4276 8.569C6.33371 8.66876 6.25945 8.78739 6.20917 8.91796C6.15889 9.04854 6.13359 9.18845 6.13474 9.32953C6.1359 9.47061 6.16348 9.61003 6.21589 9.73966C6.2683 9.86929 6.34448 9.98653 6.43999 10.0845C6.62859 10.2781 6.8812 10.3852 7.14339 10.3828C7.40559 10.3803 7.6564 10.2686 7.84181 10.0716C8.02722 9.8746 8.13239 9.60811 8.13467 9.32953C8.13695 9.05095 8.03615 8.78256 7.85399 8.58217Z" stroke="#2950ED" stroke-linecap="round" stroke-linejoin="round"/>
</svg>
