<svg width="12" height="14" viewBox="0 0 12 14" fill="none" xmlns="http://www.w3.org/2000/svg">
<path d="M1.33333 4.33334V12.3333H4V4.33334H1.33333ZM0 3.66668L2.66667 0.333344L5.33333 3.66668V13.6667H0V3.66668ZM10.6667 9.66668V8.33334H8.66667V7.00001H10.6667V5.66668H9.33333V4.33334H10.6667V3.00001H8V12.3333H10.6667V11H9.33333V9.66668H10.6667ZM7.33333 1.66668H11.3333C11.7015 1.66668 12 1.96516 12 2.33334V13C12 13.3682 11.7015 13.6667 11.3333 13.6667H7.33333C6.96513 13.6667 6.66667 13.3682 6.66667 13V2.33334C6.66667 1.96516 6.96513 1.66668 7.33333 1.66668Z" fill="#8D8E92"/>
</svg>
